<svg width="360" height="360" viewBox="0 0 360 360" fill="none" xmlns="http://www.w3.org/2000/svg">
<path d="M275 200.076C275.066 273.023 232.788 306.951 180.598 306.999C128.407 307.047 86.0667 273.195 86.0001 200.248C85.9334 127.301 131.567 54.0446 180.367 54C229.166 53.9555 274.933 127.129 275 200.076Z" fill="#E7E7E7"/>
<path d="M251.417 108.842C257.624 127.634 261.2 148.002 261.219 168.354C261.286 241.301 219.007 275.229 166.816 275.277C135.383 275.306 107.523 263.037 90.3196 237.337C102.364 284.743 138.236 307.038 180.597 306.999C232.788 306.952 275.066 273.023 275 200.076C274.97 167.537 265.847 134.953 251.417 108.842Z" fill="#D5D7D8"/>
<path d="M137.587 86.1118C121.737 103.903 117.288 127.611 122.131 131.925C126.973 136.24 135.958 117.073 151.809 99.2817C167.659 81.4904 184.372 71.8114 179.53 67.4971C174.687 63.1827 153.438 68.3205 137.587 86.1118Z" fill="#F3F3F3"/>
</svg>
